<mxfile host="app.diagrams.net" agent="Mozilla/5.0 (Windows NT 10.0; Win64; x64) AppleWebKit/537.36 (KHTML, like Gecko) Chrome/127.0.0.0 Safari/537.36 OPR/113.0.0.0" version="24.7.17">
  <diagram id="C5RBs43oDa-KdzZeNtuy" name="Page-1">
    <mxGraphModel grid="1" page="1" gridSize="10" guides="1" tooltips="1" connect="1" arrows="1" fold="1" pageScale="1" pageWidth="827" pageHeight="1169" math="0" shadow="0">
      <root>
        <mxCell id="WIyWlLk6GJQsqaUBKTNV-0" />
        <mxCell id="WIyWlLk6GJQsqaUBKTNV-1" parent="WIyWlLk6GJQsqaUBKTNV-0" />
        <mxCell id="kNUI94K5K8RUyTu7_OJi-31" style="edgeStyle=orthogonalEdgeStyle;rounded=0;orthogonalLoop=1;jettySize=auto;html=1;entryX=0.5;entryY=0;entryDx=0;entryDy=0;" edge="1" parent="WIyWlLk6GJQsqaUBKTNV-1" source="0RFjObBKBSI6Kdq1lUu1-0" target="kNUI94K5K8RUyTu7_OJi-29">
          <mxGeometry relative="1" as="geometry" />
        </mxCell>
        <mxCell id="kNUI94K5K8RUyTu7_OJi-32" style="edgeStyle=orthogonalEdgeStyle;rounded=0;orthogonalLoop=1;jettySize=auto;html=1;entryX=0.5;entryY=0;entryDx=0;entryDy=0;" edge="1" parent="WIyWlLk6GJQsqaUBKTNV-1" source="0RFjObBKBSI6Kdq1lUu1-0" target="kNUI94K5K8RUyTu7_OJi-30">
          <mxGeometry relative="1" as="geometry" />
        </mxCell>
        <mxCell id="0RFjObBKBSI6Kdq1lUu1-0" value="Familia medicamento" style="rounded=0;whiteSpace=wrap;html=1;" vertex="1" parent="WIyWlLk6GJQsqaUBKTNV-1">
          <mxGeometry x="670" y="435" width="120" height="60" as="geometry" />
        </mxCell>
        <mxCell id="0RFjObBKBSI6Kdq1lUu1-35" style="edgeStyle=orthogonalEdgeStyle;rounded=0;orthogonalLoop=1;jettySize=auto;html=1;entryX=0.5;entryY=1;entryDx=0;entryDy=0;" edge="1" parent="WIyWlLk6GJQsqaUBKTNV-1" source="0RFjObBKBSI6Kdq1lUu1-1" target="0RFjObBKBSI6Kdq1lUu1-14">
          <mxGeometry relative="1" as="geometry">
            <Array as="points">
              <mxPoint x="360" y="120" />
              <mxPoint x="389" y="120" />
            </Array>
          </mxGeometry>
        </mxCell>
        <mxCell id="0RFjObBKBSI6Kdq1lUu1-36" style="edgeStyle=orthogonalEdgeStyle;rounded=0;orthogonalLoop=1;jettySize=auto;html=1;entryX=0.5;entryY=1;entryDx=0;entryDy=0;" edge="1" parent="WIyWlLk6GJQsqaUBKTNV-1" source="0RFjObBKBSI6Kdq1lUu1-1" target="0RFjObBKBSI6Kdq1lUu1-7">
          <mxGeometry relative="1" as="geometry">
            <Array as="points">
              <mxPoint x="360" y="120" />
              <mxPoint x="203" y="120" />
              <mxPoint x="203" y="90" />
            </Array>
          </mxGeometry>
        </mxCell>
        <mxCell id="0RFjObBKBSI6Kdq1lUu1-37" style="edgeStyle=orthogonalEdgeStyle;rounded=0;orthogonalLoop=1;jettySize=auto;html=1;entryX=0.5;entryY=1;entryDx=0;entryDy=0;" edge="1" parent="WIyWlLk6GJQsqaUBKTNV-1" source="0RFjObBKBSI6Kdq1lUu1-1" target="0RFjObBKBSI6Kdq1lUu1-10">
          <mxGeometry relative="1" as="geometry">
            <Array as="points">
              <mxPoint x="360" y="120" />
              <mxPoint x="245" y="120" />
            </Array>
          </mxGeometry>
        </mxCell>
        <mxCell id="0RFjObBKBSI6Kdq1lUu1-38" style="edgeStyle=orthogonalEdgeStyle;rounded=0;orthogonalLoop=1;jettySize=auto;html=1;entryX=0.5;entryY=1;entryDx=0;entryDy=0;" edge="1" parent="WIyWlLk6GJQsqaUBKTNV-1" source="0RFjObBKBSI6Kdq1lUu1-1" target="0RFjObBKBSI6Kdq1lUu1-12">
          <mxGeometry relative="1" as="geometry">
            <Array as="points">
              <mxPoint x="360" y="120" />
              <mxPoint x="315" y="120" />
            </Array>
          </mxGeometry>
        </mxCell>
        <mxCell id="0RFjObBKBSI6Kdq1lUu1-39" style="edgeStyle=orthogonalEdgeStyle;rounded=0;orthogonalLoop=1;jettySize=auto;html=1;entryX=0.5;entryY=1;entryDx=0;entryDy=0;" edge="1" parent="WIyWlLk6GJQsqaUBKTNV-1" source="0RFjObBKBSI6Kdq1lUu1-1" target="0RFjObBKBSI6Kdq1lUu1-16">
          <mxGeometry relative="1" as="geometry">
            <Array as="points">
              <mxPoint x="360" y="120" />
              <mxPoint x="450" y="120" />
            </Array>
          </mxGeometry>
        </mxCell>
        <mxCell id="0RFjObBKBSI6Kdq1lUu1-41" style="edgeStyle=orthogonalEdgeStyle;rounded=0;orthogonalLoop=1;jettySize=auto;html=1;entryX=0.5;entryY=1;entryDx=0;entryDy=0;" edge="1" parent="WIyWlLk6GJQsqaUBKTNV-1" source="0RFjObBKBSI6Kdq1lUu1-1" target="0RFjObBKBSI6Kdq1lUu1-20">
          <mxGeometry relative="1" as="geometry">
            <Array as="points">
              <mxPoint x="360" y="120" />
              <mxPoint x="580" y="120" />
            </Array>
          </mxGeometry>
        </mxCell>
        <mxCell id="0RFjObBKBSI6Kdq1lUu1-63" style="edgeStyle=orthogonalEdgeStyle;rounded=0;orthogonalLoop=1;jettySize=auto;html=1;entryX=0;entryY=0.5;entryDx=0;entryDy=0;endArrow=none;endFill=0;" edge="1" parent="WIyWlLk6GJQsqaUBKTNV-1" source="0RFjObBKBSI6Kdq1lUu1-1" target="0RFjObBKBSI6Kdq1lUu1-23">
          <mxGeometry relative="1" as="geometry" />
        </mxCell>
        <mxCell id="kNUI94K5K8RUyTu7_OJi-25" style="edgeStyle=orthogonalEdgeStyle;rounded=0;orthogonalLoop=1;jettySize=auto;html=1;entryX=0.5;entryY=1;entryDx=0;entryDy=0;" edge="1" parent="WIyWlLk6GJQsqaUBKTNV-1" source="0RFjObBKBSI6Kdq1lUu1-1" target="kNUI94K5K8RUyTu7_OJi-24">
          <mxGeometry relative="1" as="geometry">
            <Array as="points">
              <mxPoint x="360" y="120" />
              <mxPoint x="655" y="120" />
            </Array>
          </mxGeometry>
        </mxCell>
        <mxCell id="0RFjObBKBSI6Kdq1lUu1-1" value="Medicamentos" style="rounded=0;whiteSpace=wrap;html=1;" vertex="1" parent="WIyWlLk6GJQsqaUBKTNV-1">
          <mxGeometry x="310" y="190" width="120" height="60" as="geometry" />
        </mxCell>
        <mxCell id="HgbdwvOKSqdAR-Qt4x6P-1" value="" style="edgeStyle=orthogonalEdgeStyle;rounded=0;orthogonalLoop=1;jettySize=auto;html=1;endArrow=none;endFill=0;" edge="1" parent="WIyWlLk6GJQsqaUBKTNV-1" source="0RFjObBKBSI6Kdq1lUu1-3" target="HgbdwvOKSqdAR-Qt4x6P-0">
          <mxGeometry relative="1" as="geometry" />
        </mxCell>
        <mxCell id="kNUI94K5K8RUyTu7_OJi-37" style="edgeStyle=orthogonalEdgeStyle;rounded=0;orthogonalLoop=1;jettySize=auto;html=1;entryX=0.5;entryY=0;entryDx=0;entryDy=0;" edge="1" parent="WIyWlLk6GJQsqaUBKTNV-1" source="0RFjObBKBSI6Kdq1lUu1-3" target="0RFjObBKBSI6Kdq1lUu1-28">
          <mxGeometry relative="1" as="geometry">
            <Array as="points">
              <mxPoint x="370" y="650" />
              <mxPoint x="220" y="650" />
            </Array>
          </mxGeometry>
        </mxCell>
        <mxCell id="kNUI94K5K8RUyTu7_OJi-38" style="edgeStyle=orthogonalEdgeStyle;rounded=0;orthogonalLoop=1;jettySize=auto;html=1;entryX=0.5;entryY=0;entryDx=0;entryDy=0;" edge="1" parent="WIyWlLk6GJQsqaUBKTNV-1" source="0RFjObBKBSI6Kdq1lUu1-3" target="0RFjObBKBSI6Kdq1lUu1-42">
          <mxGeometry relative="1" as="geometry">
            <Array as="points">
              <mxPoint x="370" y="650" />
              <mxPoint x="300" y="650" />
            </Array>
          </mxGeometry>
        </mxCell>
        <mxCell id="kNUI94K5K8RUyTu7_OJi-39" style="edgeStyle=orthogonalEdgeStyle;rounded=0;orthogonalLoop=1;jettySize=auto;html=1;entryX=0.5;entryY=0;entryDx=0;entryDy=0;" edge="1" parent="WIyWlLk6GJQsqaUBKTNV-1" source="0RFjObBKBSI6Kdq1lUu1-3" target="0RFjObBKBSI6Kdq1lUu1-48">
          <mxGeometry relative="1" as="geometry" />
        </mxCell>
        <mxCell id="kNUI94K5K8RUyTu7_OJi-40" style="edgeStyle=orthogonalEdgeStyle;rounded=0;orthogonalLoop=1;jettySize=auto;html=1;entryX=0.5;entryY=0;entryDx=0;entryDy=0;" edge="1" parent="WIyWlLk6GJQsqaUBKTNV-1" source="0RFjObBKBSI6Kdq1lUu1-3" target="0RFjObBKBSI6Kdq1lUu1-43">
          <mxGeometry relative="1" as="geometry">
            <Array as="points">
              <mxPoint x="370" y="650" />
              <mxPoint x="440" y="650" />
            </Array>
          </mxGeometry>
        </mxCell>
        <mxCell id="kNUI94K5K8RUyTu7_OJi-41" style="edgeStyle=orthogonalEdgeStyle;rounded=0;orthogonalLoop=1;jettySize=auto;html=1;entryX=0.5;entryY=0;entryDx=0;entryDy=0;" edge="1" parent="WIyWlLk6GJQsqaUBKTNV-1" source="0RFjObBKBSI6Kdq1lUu1-3" target="0RFjObBKBSI6Kdq1lUu1-44">
          <mxGeometry relative="1" as="geometry">
            <Array as="points">
              <mxPoint x="370" y="650" />
              <mxPoint x="520" y="650" />
            </Array>
          </mxGeometry>
        </mxCell>
        <mxCell id="kNUI94K5K8RUyTu7_OJi-42" style="edgeStyle=orthogonalEdgeStyle;rounded=0;orthogonalLoop=1;jettySize=auto;html=1;entryX=0.5;entryY=0;entryDx=0;entryDy=0;" edge="1" parent="WIyWlLk6GJQsqaUBKTNV-1" source="0RFjObBKBSI6Kdq1lUu1-3" target="kNUI94K5K8RUyTu7_OJi-27">
          <mxGeometry relative="1" as="geometry">
            <Array as="points">
              <mxPoint x="370" y="650" />
              <mxPoint x="590" y="650" />
            </Array>
          </mxGeometry>
        </mxCell>
        <mxCell id="0RFjObBKBSI6Kdq1lUu1-3" value="Laboratorio" style="rounded=0;whiteSpace=wrap;html=1;" vertex="1" parent="WIyWlLk6GJQsqaUBKTNV-1">
          <mxGeometry x="310" y="540" width="120" height="60" as="geometry" />
        </mxCell>
        <mxCell id="0RFjObBKBSI6Kdq1lUu1-88" style="edgeStyle=orthogonalEdgeStyle;rounded=0;orthogonalLoop=1;jettySize=auto;html=1;entryX=0;entryY=0.5;entryDx=0;entryDy=0;endArrow=none;endFill=0;" edge="1" parent="WIyWlLk6GJQsqaUBKTNV-1" source="0RFjObBKBSI6Kdq1lUu1-4" target="0RFjObBKBSI6Kdq1lUu1-65">
          <mxGeometry relative="1" as="geometry" />
        </mxCell>
        <mxCell id="kNUI94K5K8RUyTu7_OJi-16" style="edgeStyle=orthogonalEdgeStyle;rounded=0;orthogonalLoop=1;jettySize=auto;html=1;entryX=0.5;entryY=1;entryDx=0;entryDy=0;" edge="1" parent="WIyWlLk6GJQsqaUBKTNV-1" source="0RFjObBKBSI6Kdq1lUu1-4" target="0RFjObBKBSI6Kdq1lUu1-97">
          <mxGeometry relative="1" as="geometry" />
        </mxCell>
        <mxCell id="kNUI94K5K8RUyTu7_OJi-17" style="edgeStyle=orthogonalEdgeStyle;rounded=0;orthogonalLoop=1;jettySize=auto;html=1;entryX=0.5;entryY=1;entryDx=0;entryDy=0;" edge="1" parent="WIyWlLk6GJQsqaUBKTNV-1" source="0RFjObBKBSI6Kdq1lUu1-4" target="0RFjObBKBSI6Kdq1lUu1-96">
          <mxGeometry relative="1" as="geometry" />
        </mxCell>
        <mxCell id="kNUI94K5K8RUyTu7_OJi-18" style="edgeStyle=orthogonalEdgeStyle;rounded=0;orthogonalLoop=1;jettySize=auto;html=1;entryX=0.5;entryY=1;entryDx=0;entryDy=0;" edge="1" parent="WIyWlLk6GJQsqaUBKTNV-1" source="0RFjObBKBSI6Kdq1lUu1-4" target="kNUI94K5K8RUyTu7_OJi-2">
          <mxGeometry relative="1" as="geometry" />
        </mxCell>
        <mxCell id="kNUI94K5K8RUyTu7_OJi-19" style="edgeStyle=orthogonalEdgeStyle;rounded=0;orthogonalLoop=1;jettySize=auto;html=1;entryX=0.5;entryY=1;entryDx=0;entryDy=0;" edge="1" parent="WIyWlLk6GJQsqaUBKTNV-1" source="0RFjObBKBSI6Kdq1lUu1-4" target="kNUI94K5K8RUyTu7_OJi-3">
          <mxGeometry relative="1" as="geometry" />
        </mxCell>
        <mxCell id="kNUI94K5K8RUyTu7_OJi-20" style="edgeStyle=orthogonalEdgeStyle;rounded=0;orthogonalLoop=1;jettySize=auto;html=1;entryX=0.5;entryY=1;entryDx=0;entryDy=0;" edge="1" parent="WIyWlLk6GJQsqaUBKTNV-1" source="0RFjObBKBSI6Kdq1lUu1-4" target="kNUI94K5K8RUyTu7_OJi-4">
          <mxGeometry relative="1" as="geometry" />
        </mxCell>
        <mxCell id="kNUI94K5K8RUyTu7_OJi-21" style="edgeStyle=orthogonalEdgeStyle;rounded=0;orthogonalLoop=1;jettySize=auto;html=1;" edge="1" parent="WIyWlLk6GJQsqaUBKTNV-1" source="0RFjObBKBSI6Kdq1lUu1-4" target="kNUI94K5K8RUyTu7_OJi-5">
          <mxGeometry relative="1" as="geometry" />
        </mxCell>
        <mxCell id="kNUI94K5K8RUyTu7_OJi-22" style="edgeStyle=orthogonalEdgeStyle;rounded=0;orthogonalLoop=1;jettySize=auto;html=1;entryX=0.5;entryY=1;entryDx=0;entryDy=0;" edge="1" parent="WIyWlLk6GJQsqaUBKTNV-1" source="0RFjObBKBSI6Kdq1lUu1-4" target="kNUI94K5K8RUyTu7_OJi-9">
          <mxGeometry relative="1" as="geometry">
            <Array as="points">
              <mxPoint x="-250" y="270" />
              <mxPoint x="-115" y="270" />
            </Array>
          </mxGeometry>
        </mxCell>
        <mxCell id="0RFjObBKBSI6Kdq1lUu1-4" value="Cliente" style="rounded=0;whiteSpace=wrap;html=1;" vertex="1" parent="WIyWlLk6GJQsqaUBKTNV-1">
          <mxGeometry x="-310" y="290" width="120" height="60" as="geometry" />
        </mxCell>
        <mxCell id="0RFjObBKBSI6Kdq1lUu1-7" value="&lt;b&gt;Código&lt;br&gt;Medicamento&lt;br&gt;&lt;/b&gt;" style="ellipse;whiteSpace=wrap;html=1;aspect=fixed;fillColor=#e1d5e7;strokeColor=#9673a6;" vertex="1" parent="WIyWlLk6GJQsqaUBKTNV-1">
          <mxGeometry x="120" width="80" height="80" as="geometry" />
        </mxCell>
        <mxCell id="0RFjObBKBSI6Kdq1lUu1-10" value="&lt;b&gt;Nombre&lt;/b&gt;" style="ellipse;whiteSpace=wrap;html=1;aspect=fixed;fillColor=#76608a;fontColor=#ffffff;strokeColor=#432D57;" vertex="1" parent="WIyWlLk6GJQsqaUBKTNV-1">
          <mxGeometry x="220" y="25" width="50" height="50" as="geometry" />
        </mxCell>
        <mxCell id="0RFjObBKBSI6Kdq1lUu1-12" value="Tipo&lt;br&gt;Medicamento" style="ellipse;whiteSpace=wrap;html=1;aspect=fixed;fillColor=#e1d5e7;strokeColor=#9673a6;" vertex="1" parent="WIyWlLk6GJQsqaUBKTNV-1">
          <mxGeometry x="280" y="10" width="70" height="70" as="geometry" />
        </mxCell>
        <mxCell id="0RFjObBKBSI6Kdq1lUu1-14" value="Stock" style="ellipse;whiteSpace=wrap;html=1;aspect=fixed;fillColor=#e1d5e7;strokeColor=#9673a6;dashed=1;" vertex="1" parent="WIyWlLk6GJQsqaUBKTNV-1">
          <mxGeometry x="363.5" y="20" width="50" height="50" as="geometry" />
        </mxCell>
        <mxCell id="0RFjObBKBSI6Kdq1lUu1-16" value="U.&lt;br&gt;Vendidas" style="ellipse;whiteSpace=wrap;html=1;aspect=fixed;fillColor=#e1d5e7;strokeColor=#9673a6;dashed=1;" vertex="1" parent="WIyWlLk6GJQsqaUBKTNV-1">
          <mxGeometry x="420" y="20" width="60" height="60" as="geometry" />
        </mxCell>
        <mxCell id="0RFjObBKBSI6Kdq1lUu1-18" value="Precio" style="ellipse;whiteSpace=wrap;html=1;aspect=fixed;fillColor=#e1d5e7;strokeColor=#9673a6;" vertex="1" parent="WIyWlLk6GJQsqaUBKTNV-1">
          <mxGeometry x="490" y="25" width="50" height="50" as="geometry" />
        </mxCell>
        <mxCell id="0RFjObBKBSI6Kdq1lUu1-20" value="Requiere&lt;br&gt;Prescripción" style="ellipse;whiteSpace=wrap;html=1;aspect=fixed;fillColor=#e1d5e7;strokeColor=#9673a6;" vertex="1" parent="WIyWlLk6GJQsqaUBKTNV-1">
          <mxGeometry x="545" y="15" width="70" height="70" as="geometry" />
        </mxCell>
        <mxCell id="0RFjObBKBSI6Kdq1lUu1-64" style="edgeStyle=orthogonalEdgeStyle;rounded=0;orthogonalLoop=1;jettySize=auto;html=1;entryX=0;entryY=0.5;entryDx=0;entryDy=0;endArrow=none;endFill=0;" edge="1" parent="WIyWlLk6GJQsqaUBKTNV-1" source="0RFjObBKBSI6Kdq1lUu1-23" target="0RFjObBKBSI6Kdq1lUu1-0">
          <mxGeometry relative="1" as="geometry" />
        </mxCell>
        <mxCell id="0RFjObBKBSI6Kdq1lUu1-23" value="Pertenece a" style="rhombus;whiteSpace=wrap;html=1;" vertex="1" parent="WIyWlLk6GJQsqaUBKTNV-1">
          <mxGeometry x="520" y="250" width="80" height="80" as="geometry" />
        </mxCell>
        <mxCell id="0RFjObBKBSI6Kdq1lUu1-28" value="Código" style="ellipse;whiteSpace=wrap;html=1;aspect=fixed;fillColor=#e1d5e7;strokeColor=#9673a6;" vertex="1" parent="WIyWlLk6GJQsqaUBKTNV-1">
          <mxGeometry x="195" y="710" width="50" height="50" as="geometry" />
        </mxCell>
        <mxCell id="0RFjObBKBSI6Kdq1lUu1-40" style="edgeStyle=orthogonalEdgeStyle;rounded=0;orthogonalLoop=1;jettySize=auto;html=1;entryX=0.38;entryY=1.02;entryDx=0;entryDy=0;entryPerimeter=0;" edge="1" parent="WIyWlLk6GJQsqaUBKTNV-1" source="0RFjObBKBSI6Kdq1lUu1-1" target="0RFjObBKBSI6Kdq1lUu1-18">
          <mxGeometry relative="1" as="geometry">
            <Array as="points">
              <mxPoint x="360" y="120" />
              <mxPoint x="509" y="120" />
            </Array>
          </mxGeometry>
        </mxCell>
        <mxCell id="0RFjObBKBSI6Kdq1lUu1-42" value="Nombre" style="ellipse;whiteSpace=wrap;html=1;aspect=fixed;fillColor=#76608a;strokeColor=#432D57;fontColor=#ffffff;" vertex="1" parent="WIyWlLk6GJQsqaUBKTNV-1">
          <mxGeometry x="275" y="710" width="50" height="50" as="geometry" />
        </mxCell>
        <mxCell id="0RFjObBKBSI6Kdq1lUu1-43" value="Fax" style="ellipse;whiteSpace=wrap;html=1;aspect=fixed;fillColor=#e1d5e7;strokeColor=#9673a6;" vertex="1" parent="WIyWlLk6GJQsqaUBKTNV-1">
          <mxGeometry x="415" y="710" width="50" height="50" as="geometry" />
        </mxCell>
        <mxCell id="0RFjObBKBSI6Kdq1lUu1-56" style="edgeStyle=orthogonalEdgeStyle;rounded=0;orthogonalLoop=1;jettySize=auto;html=1;entryX=0.5;entryY=0;entryDx=0;entryDy=0;" edge="1" parent="WIyWlLk6GJQsqaUBKTNV-1" source="0RFjObBKBSI6Kdq1lUu1-44" target="0RFjObBKBSI6Kdq1lUu1-52">
          <mxGeometry relative="1" as="geometry">
            <Array as="points">
              <mxPoint x="520" y="780" />
              <mxPoint x="460" y="780" />
            </Array>
          </mxGeometry>
        </mxCell>
        <mxCell id="0RFjObBKBSI6Kdq1lUu1-57" style="edgeStyle=orthogonalEdgeStyle;rounded=0;orthogonalLoop=1;jettySize=auto;html=1;entryX=0.5;entryY=0;entryDx=0;entryDy=0;" edge="1" parent="WIyWlLk6GJQsqaUBKTNV-1" source="0RFjObBKBSI6Kdq1lUu1-44" target="0RFjObBKBSI6Kdq1lUu1-53">
          <mxGeometry relative="1" as="geometry" />
        </mxCell>
        <mxCell id="0RFjObBKBSI6Kdq1lUu1-58" style="edgeStyle=orthogonalEdgeStyle;rounded=0;orthogonalLoop=1;jettySize=auto;html=1;entryX=0.5;entryY=0;entryDx=0;entryDy=0;" edge="1" parent="WIyWlLk6GJQsqaUBKTNV-1" source="0RFjObBKBSI6Kdq1lUu1-44" target="0RFjObBKBSI6Kdq1lUu1-54">
          <mxGeometry relative="1" as="geometry">
            <Array as="points">
              <mxPoint x="520" y="780" />
              <mxPoint x="584" y="780" />
            </Array>
          </mxGeometry>
        </mxCell>
        <mxCell id="0RFjObBKBSI6Kdq1lUu1-44" value="Dirección" style="ellipse;whiteSpace=wrap;html=1;aspect=fixed;fillColor=#e1d5e7;strokeColor=#9673a6;" vertex="1" parent="WIyWlLk6GJQsqaUBKTNV-1">
          <mxGeometry x="495" y="710" width="50" height="50" as="geometry" />
        </mxCell>
        <mxCell id="0RFjObBKBSI6Kdq1lUu1-48" value="Telefono" style="ellipse;whiteSpace=wrap;html=1;aspect=fixed;fillColor=#e1d5e7;strokeColor=#9673a6;" vertex="1" parent="WIyWlLk6GJQsqaUBKTNV-1">
          <mxGeometry x="345" y="710" width="50" height="50" as="geometry" />
        </mxCell>
        <mxCell id="0RFjObBKBSI6Kdq1lUu1-52" value="Tipo via" style="ellipse;whiteSpace=wrap;html=1;aspect=fixed;fillColor=#e1d5e7;strokeColor=#9673a6;" vertex="1" parent="WIyWlLk6GJQsqaUBKTNV-1">
          <mxGeometry x="435" y="800" width="50" height="50" as="geometry" />
        </mxCell>
        <mxCell id="0RFjObBKBSI6Kdq1lUu1-53" value="Nombre" style="ellipse;whiteSpace=wrap;html=1;aspect=fixed;fillColor=#e1d5e7;strokeColor=#9673a6;" vertex="1" parent="WIyWlLk6GJQsqaUBKTNV-1">
          <mxGeometry x="495" y="800" width="50" height="50" as="geometry" />
        </mxCell>
        <mxCell id="0RFjObBKBSI6Kdq1lUu1-54" value="Número" style="ellipse;whiteSpace=wrap;html=1;aspect=fixed;fillColor=#e1d5e7;strokeColor=#9673a6;" vertex="1" parent="WIyWlLk6GJQsqaUBKTNV-1">
          <mxGeometry x="559" y="800" width="50" height="50" as="geometry" />
        </mxCell>
        <mxCell id="HgbdwvOKSqdAR-Qt4x6P-3" style="edgeStyle=orthogonalEdgeStyle;rounded=0;orthogonalLoop=1;jettySize=auto;html=1;entryX=0.5;entryY=0;entryDx=0;entryDy=0;endArrow=none;endFill=0;" edge="1" parent="WIyWlLk6GJQsqaUBKTNV-1" source="0RFjObBKBSI6Kdq1lUu1-65" target="0RFjObBKBSI6Kdq1lUu1-74">
          <mxGeometry relative="1" as="geometry" />
        </mxCell>
        <mxCell id="HgbdwvOKSqdAR-Qt4x6P-4" style="edgeStyle=orthogonalEdgeStyle;rounded=0;orthogonalLoop=1;jettySize=auto;html=1;entryX=0.5;entryY=0;entryDx=0;entryDy=0;endArrow=none;endFill=0;" edge="1" parent="WIyWlLk6GJQsqaUBKTNV-1" source="0RFjObBKBSI6Kdq1lUu1-65" target="0RFjObBKBSI6Kdq1lUu1-71">
          <mxGeometry relative="1" as="geometry" />
        </mxCell>
        <mxCell id="kNUI94K5K8RUyTu7_OJi-23" style="edgeStyle=orthogonalEdgeStyle;rounded=0;orthogonalLoop=1;jettySize=auto;html=1;entryX=0;entryY=0.5;entryDx=0;entryDy=0;endArrow=none;endFill=0;" edge="1" parent="WIyWlLk6GJQsqaUBKTNV-1" source="0RFjObBKBSI6Kdq1lUu1-65" target="0RFjObBKBSI6Kdq1lUu1-1">
          <mxGeometry relative="1" as="geometry">
            <Array as="points">
              <mxPoint x="35" y="220" />
            </Array>
          </mxGeometry>
        </mxCell>
        <mxCell id="0RFjObBKBSI6Kdq1lUu1-65" value="Compra" style="rhombus;whiteSpace=wrap;html=1;" vertex="1" parent="WIyWlLk6GJQsqaUBKTNV-1">
          <mxGeometry x="-5" y="280" width="80" height="80" as="geometry" />
        </mxCell>
        <mxCell id="0RFjObBKBSI6Kdq1lUu1-71" value="Unidades" style="ellipse;whiteSpace=wrap;html=1;aspect=fixed;fillColor=#e1d5e7;strokeColor=#9673a6;" vertex="1" parent="WIyWlLk6GJQsqaUBKTNV-1">
          <mxGeometry x="40" y="400" width="50" height="50" as="geometry" />
        </mxCell>
        <mxCell id="0RFjObBKBSI6Kdq1lUu1-74" value="Fecha compra" style="ellipse;whiteSpace=wrap;html=1;aspect=fixed;fillColor=#e1d5e7;strokeColor=#9673a6;" vertex="1" parent="WIyWlLk6GJQsqaUBKTNV-1">
          <mxGeometry x="-20" y="400" width="50" height="50" as="geometry" />
        </mxCell>
        <mxCell id="0RFjObBKBSI6Kdq1lUu1-76" value="(1,N)" style="text;html=1;align=center;verticalAlign=middle;whiteSpace=wrap;rounded=0;" vertex="1" parent="WIyWlLk6GJQsqaUBKTNV-1">
          <mxGeometry x="420" y="190" width="60" height="30" as="geometry" />
        </mxCell>
        <mxCell id="0RFjObBKBSI6Kdq1lUu1-77" value="(1,N)" style="text;html=1;align=center;verticalAlign=middle;whiteSpace=wrap;rounded=0;" vertex="1" parent="WIyWlLk6GJQsqaUBKTNV-1">
          <mxGeometry x="620" y="465" width="60" height="30" as="geometry" />
        </mxCell>
        <mxCell id="0RFjObBKBSI6Kdq1lUu1-96" value="Fecha&lt;br&gt;Pago" style="ellipse;whiteSpace=wrap;html=1;aspect=fixed;fillColor=#e1d5e7;strokeColor=#9673a6;" vertex="1" parent="WIyWlLk6GJQsqaUBKTNV-1">
          <mxGeometry x="-445" y="200" width="50" height="50" as="geometry" />
        </mxCell>
        <mxCell id="0RFjObBKBSI6Kdq1lUu1-97" value="Cuenta bancaria" style="ellipse;whiteSpace=wrap;html=1;aspect=fixed;fillColor=#e1d5e7;strokeColor=#9673a6;" vertex="1" parent="WIyWlLk6GJQsqaUBKTNV-1">
          <mxGeometry x="-505" y="200" width="50" height="50" as="geometry" />
        </mxCell>
        <mxCell id="HgbdwvOKSqdAR-Qt4x6P-2" style="edgeStyle=orthogonalEdgeStyle;rounded=0;orthogonalLoop=1;jettySize=auto;html=1;entryX=0.5;entryY=1;entryDx=0;entryDy=0;endArrow=none;endFill=0;exitX=0.5;exitY=0;exitDx=0;exitDy=0;" edge="1" parent="WIyWlLk6GJQsqaUBKTNV-1" source="HgbdwvOKSqdAR-Qt4x6P-0" target="0RFjObBKBSI6Kdq1lUu1-1">
          <mxGeometry relative="1" as="geometry">
            <Array as="points">
              <mxPoint x="360" y="370" />
              <mxPoint x="360" y="370" />
            </Array>
          </mxGeometry>
        </mxCell>
        <mxCell id="HgbdwvOKSqdAR-Qt4x6P-0" value="Provee" style="rhombus;whiteSpace=wrap;html=1;rounded=0;" vertex="1" parent="WIyWlLk6GJQsqaUBKTNV-1">
          <mxGeometry x="330" y="348" width="80" height="80" as="geometry" />
        </mxCell>
        <mxCell id="kNUI94K5K8RUyTu7_OJi-2" value="Es&lt;br&gt;Creditario" style="ellipse;whiteSpace=wrap;html=1;aspect=fixed;fillColor=#e1d5e7;strokeColor=#9673a6;" vertex="1" parent="WIyWlLk6GJQsqaUBKTNV-1">
          <mxGeometry x="-385" y="200" width="50" height="50" as="geometry" />
        </mxCell>
        <mxCell id="kNUI94K5K8RUyTu7_OJi-3" value="Nombre" style="ellipse;whiteSpace=wrap;html=1;aspect=fixed;fillColor=#e1d5e7;strokeColor=#9673a6;" vertex="1" parent="WIyWlLk6GJQsqaUBKTNV-1">
          <mxGeometry x="-325" y="200" width="50" height="50" as="geometry" />
        </mxCell>
        <mxCell id="kNUI94K5K8RUyTu7_OJi-4" value="&lt;b&gt;NIF&lt;/b&gt;" style="ellipse;whiteSpace=wrap;html=1;aspect=fixed;fillColor=#76608a;fontColor=#ffffff;strokeColor=#432D57;" vertex="1" parent="WIyWlLk6GJQsqaUBKTNV-1">
          <mxGeometry x="-265" y="200" width="50" height="50" as="geometry" />
        </mxCell>
        <mxCell id="kNUI94K5K8RUyTu7_OJi-5" value="Telefono" style="ellipse;whiteSpace=wrap;html=1;aspect=fixed;fillColor=#e1d5e7;strokeColor=#9673a6;" vertex="1" parent="WIyWlLk6GJQsqaUBKTNV-1">
          <mxGeometry x="-200" y="200" width="50" height="50" as="geometry" />
        </mxCell>
        <mxCell id="kNUI94K5K8RUyTu7_OJi-9" value="Dirección" style="ellipse;whiteSpace=wrap;html=1;aspect=fixed;fillColor=#e1d5e7;strokeColor=#9673a6;" vertex="1" parent="WIyWlLk6GJQsqaUBKTNV-1">
          <mxGeometry x="-140" y="200" width="50" height="50" as="geometry" />
        </mxCell>
        <mxCell id="kNUI94K5K8RUyTu7_OJi-10" value="Tipo via" style="ellipse;whiteSpace=wrap;html=1;aspect=fixed;fillColor=#e1d5e7;strokeColor=#9673a6;" vertex="1" parent="WIyWlLk6GJQsqaUBKTNV-1">
          <mxGeometry x="-200" y="90" width="50" height="50" as="geometry" />
        </mxCell>
        <mxCell id="kNUI94K5K8RUyTu7_OJi-11" value="Nombre" style="ellipse;whiteSpace=wrap;html=1;aspect=fixed;fillColor=#e1d5e7;strokeColor=#9673a6;" vertex="1" parent="WIyWlLk6GJQsqaUBKTNV-1">
          <mxGeometry x="-140" y="90" width="50" height="50" as="geometry" />
        </mxCell>
        <mxCell id="kNUI94K5K8RUyTu7_OJi-12" value="Número" style="ellipse;whiteSpace=wrap;html=1;aspect=fixed;fillColor=#e1d5e7;strokeColor=#9673a6;" vertex="1" parent="WIyWlLk6GJQsqaUBKTNV-1">
          <mxGeometry x="-80" y="85" width="50" height="50" as="geometry" />
        </mxCell>
        <mxCell id="kNUI94K5K8RUyTu7_OJi-13" value="" style="endArrow=none;html=1;rounded=0;exitX=0.5;exitY=0;exitDx=0;exitDy=0;entryX=0.5;entryY=1;entryDx=0;entryDy=0;" edge="1" parent="WIyWlLk6GJQsqaUBKTNV-1" source="kNUI94K5K8RUyTu7_OJi-9" target="kNUI94K5K8RUyTu7_OJi-10">
          <mxGeometry width="50" height="50" relative="1" as="geometry">
            <mxPoint x="-40" y="220" as="sourcePoint" />
            <mxPoint x="10" y="170" as="targetPoint" />
          </mxGeometry>
        </mxCell>
        <mxCell id="kNUI94K5K8RUyTu7_OJi-14" value="" style="endArrow=none;html=1;rounded=0;exitX=0.5;exitY=0;exitDx=0;exitDy=0;entryX=0.5;entryY=1;entryDx=0;entryDy=0;" edge="1" parent="WIyWlLk6GJQsqaUBKTNV-1" source="kNUI94K5K8RUyTu7_OJi-9" target="kNUI94K5K8RUyTu7_OJi-11">
          <mxGeometry width="50" height="50" relative="1" as="geometry">
            <mxPoint x="-40" y="230" as="sourcePoint" />
            <mxPoint x="10" y="180" as="targetPoint" />
          </mxGeometry>
        </mxCell>
        <mxCell id="kNUI94K5K8RUyTu7_OJi-15" value="" style="endArrow=none;html=1;rounded=0;entryX=0.5;entryY=1;entryDx=0;entryDy=0;exitX=0.5;exitY=0;exitDx=0;exitDy=0;" edge="1" parent="WIyWlLk6GJQsqaUBKTNV-1" source="kNUI94K5K8RUyTu7_OJi-9" target="kNUI94K5K8RUyTu7_OJi-12">
          <mxGeometry width="50" height="50" relative="1" as="geometry">
            <mxPoint x="-40" y="300" as="sourcePoint" />
            <mxPoint x="10" y="250" as="targetPoint" />
          </mxGeometry>
        </mxCell>
        <mxCell id="kNUI94K5K8RUyTu7_OJi-24" value="Produccion&lt;br&gt;Propia" style="ellipse;whiteSpace=wrap;html=1;aspect=fixed;fillColor=#e1d5e7;strokeColor=#9673a6;" vertex="1" parent="WIyWlLk6GJQsqaUBKTNV-1">
          <mxGeometry x="620" y="15" width="70" height="70" as="geometry" />
        </mxCell>
        <mxCell id="kNUI94K5K8RUyTu7_OJi-27" value="Nombre&lt;br&gt;Contacto" style="ellipse;whiteSpace=wrap;html=1;aspect=fixed;fillColor=#e1d5e7;strokeColor=#9673a6;" vertex="1" parent="WIyWlLk6GJQsqaUBKTNV-1">
          <mxGeometry x="565" y="710" width="50" height="50" as="geometry" />
        </mxCell>
        <mxCell id="kNUI94K5K8RUyTu7_OJi-29" value="Nombre" style="ellipse;whiteSpace=wrap;html=1;aspect=fixed;fillColor=#76608a;strokeColor=#432D57;fontColor=#ffffff;" vertex="1" parent="WIyWlLk6GJQsqaUBKTNV-1">
          <mxGeometry x="660" y="555" width="50" height="50" as="geometry" />
        </mxCell>
        <mxCell id="kNUI94K5K8RUyTu7_OJi-30" value="Enfermedades" style="ellipse;whiteSpace=wrap;html=1;aspect=fixed;fillColor=#e1d5e7;strokeColor=#9673a6;" vertex="1" parent="WIyWlLk6GJQsqaUBKTNV-1">
          <mxGeometry x="740" y="555" width="80" height="80" as="geometry" />
        </mxCell>
        <mxCell id="kNUI94K5K8RUyTu7_OJi-35" value="(1,N)" style="text;html=1;align=center;verticalAlign=middle;resizable=0;points=[];autosize=1;strokeColor=none;fillColor=none;" vertex="1" parent="WIyWlLk6GJQsqaUBKTNV-1">
          <mxGeometry x="-185" y="318" width="50" height="30" as="geometry" />
        </mxCell>
        <mxCell id="kNUI94K5K8RUyTu7_OJi-36" value="(1,N)" style="text;html=1;align=center;verticalAlign=middle;resizable=0;points=[];autosize=1;strokeColor=none;fillColor=none;" vertex="1" parent="WIyWlLk6GJQsqaUBKTNV-1">
          <mxGeometry x="255" y="228" width="50" height="30" as="geometry" />
        </mxCell>
        <mxCell id="kNUI94K5K8RUyTu7_OJi-43" value="(1,N)" style="text;html=1;align=center;verticalAlign=middle;resizable=0;points=[];autosize=1;strokeColor=none;fillColor=none;" vertex="1" parent="WIyWlLk6GJQsqaUBKTNV-1">
          <mxGeometry x="365" y="258" width="50" height="30" as="geometry" />
        </mxCell>
        <mxCell id="kNUI94K5K8RUyTu7_OJi-44" value="(1,N)" style="text;html=1;align=center;verticalAlign=middle;resizable=0;points=[];autosize=1;strokeColor=none;fillColor=none;" vertex="1" parent="WIyWlLk6GJQsqaUBKTNV-1">
          <mxGeometry x="365" y="508" width="50" height="30" as="geometry" />
        </mxCell>
      </root>
    </mxGraphModel>
  </diagram>
</mxfile>
